<svg id="Objects" xmlns="http://www.w3.org/2000/svg" viewBox="0 0 750 500"><defs><style>.cls-1{fill:#005260;}.cls-2{fill:#004054;}.cls-3{fill:#2bb600;}.cls-4{font-size:111.35px;fill:#303030;font-family:ProximaNova-Bold, Proxima Nova;font-weight:700;letter-spacing:0.23em;}.cls-5{letter-spacing:0.2em;}.cls-6{letter-spacing:0.23em;}.cls-7{fill:#e87400;}</style></defs><path class="cls-1" d="M190.08,157.69a28.71,28.71,0,0,1,0,51.59h7.32a33,33,0,0,0,9.95-12.72l8.14,4.31-1.38,3.79,3.66,1.34,5-13.78-3.66-1.34-1.39,3.79-9-1.95a32.6,32.6,0,0,0,.31-17.38l4.38-.7.74,2.46,3.26-1-2.63-8.69-3.26,1,.74,2.46-4,1.85a32.69,32.69,0,0,0-8.91-13.41l1.71-1.62Z"/><path class="cls-2" d="M174.66,215.88a32.4,32.4,0,1,1,32.39-32.4A32.44,32.44,0,0,1,174.66,215.88Zm0-61.34a28.94,28.94,0,1,0,28.93,28.94A29,29,0,0,0,174.66,154.54Z"/><path class="cls-3" d="M163.59,199.49a8,8,0,0,1-3.37-.79,11,11,0,0,1-5.9-11.67,7,7,0,0,1,10.24-5.17,11,11,0,0,1,5.89,11.68,7.27,7.27,0,0,1-3.78,5.22A6.91,6.91,0,0,1,163.59,199.49ZM161.19,185a2.82,2.82,0,0,0-1.32.31,3.46,3.46,0,0,0-1.73,2.51,6.7,6.7,0,0,0,.68,4.28h0a6.7,6.7,0,0,0,3,3.09,3.17,3.17,0,0,0,4.77-2.41,7.11,7.11,0,0,0-3.72-7.37A4.12,4.12,0,0,0,161.19,185Z"/><path class="cls-3" d="M185.31,199.58a6.77,6.77,0,0,1-3.28-.83c-3.81-2.1-4.86-7.54-2.34-12.12a10.52,10.52,0,0,1,5-4.69,7,7,0,0,1,10.05,5.52,10.56,10.56,0,0,1-1.26,6.77A9.75,9.75,0,0,1,185.31,199.58Zm2.56-14.4a4,4,0,0,0-1.61.35,6.65,6.65,0,0,0-3.15,3c-1.46,2.65-1.09,5.78.8,6.82s4.73-.32,6.2-3a6.62,6.62,0,0,0,.82-4.25,3.41,3.41,0,0,0-1.63-2.57A2.89,2.89,0,0,0,187.87,185.18Z"/><path class="cls-3" d="M174.85,177.39c-.31,0-.62,0-.93,0-5.31-.37-9.26-3.72-9-7.62s4.65-6.66,10-6.29a11.72,11.72,0,0,1,6.28,2.25,5.88,5.88,0,0,1-.73,10.32A11.35,11.35,0,0,1,174.85,177.39ZM174,167.31c-2.88,0-5.05,1.35-5.14,2.7s2.17,3.23,5.36,3.45a7.86,7.86,0,0,0,4.32-.84,2.06,2.06,0,0,0,.27-3.85,7.93,7.93,0,0,0-4.16-1.44Z"/><polygon class="cls-2" points="176.44 152.82 172.87 152.82 171.09 139.86 178.22 139.86 176.44 152.82"/><rect class="cls-3" x="167.32" y="138.14" width="14.67" height="3.45"/><polygon class="cls-2" points="161.56 155.73 159.59 156.75 154.93 150.13 158.85 148.11 161.56 155.73"/><rect class="cls-3" x="152.35" y="147.61" width="9.08" height="3.02" transform="translate(-50.96 88.7) rotate(-27.34)"/><polygon class="cls-2" points="204.32 175.64 203.68 173.53 211.03 170.15 212.31 174.37 204.32 175.64"/><rect class="cls-3" x="210.16" y="167.72" width="3.02" height="9.08" transform="translate(-40.87 68.82) rotate(-16.86)"/><polygon class="cls-3" points="190.82 209.57 192.65 208.34 198.03 214.38 194.37 216.84 190.82 209.57"/><rect class="cls-3" x="191.66" y="214.1" width="9.08" height="3.02" transform="translate(-86.84 145.84) rotate(-33.85)"/><polygon class="cls-2" points="144.29 187.93 144.69 190.1 137.01 192.63 136.21 188.29 144.29 187.93"/><rect class="cls-3" x="135.1" y="185.92" width="3.02" height="9.08" transform="translate(-32.12 27.77) rotate(-10.39)"/><polygon class="cls-2" points="195.17 160.62 192.38 158.39 199.06 147.15 204.63 151.6 195.17 160.62"/><rect class="cls-2" x="200.12" y="142.04" width="3.45" height="14.67" transform="translate(-40.78 214.09) rotate(-51.44)"/><polygon class="cls-2" points="202.85 195.67 204.07 192.32 216.85 195.09 214.41 201.79 202.85 195.67"/><rect class="cls-3" x="208.29" y="196.71" width="14.68" height="3.45" transform="translate(-44.71 332.96) rotate(-69.95)"/><polygon class="cls-2" points="172.57 214.13 176.14 214.16 177.79 227.14 170.66 227.07 172.57 214.13"/><rect class="cls-3" x="172.5" y="219.76" width="3.45" height="14.68" transform="translate(-54.59 399.07) rotate(-89.43)"/><polygon class="cls-2" points="151.2 203.31 153.65 205.9 145.49 216.12 140.58 210.94 151.2 203.31"/><rect class="cls-3" x="141.31" y="206.19" width="3.45" height="14.68" transform="translate(-107.74 157.26) rotate(-43.54)"/><polygon class="cls-2" points="148.98 166.63 147.19 169.72 135.08 164.79 138.64 158.61 148.98 166.63"/><rect class="cls-3" x="129.52" y="159.97" width="14.67" height="3.45" transform="translate(-71.58 199.53) rotate(-60.04)"/><text class="cls-4" transform="translate(42.54 333.52)">TR<tspan class="cls-5" x="187.62" y="0">A</tspan><tspan class="cls-6" x="285.61" y="0">CKER</tspan></text><path class="cls-7" d="M35.58,177.63c0-25.68,19.42-43.22,44.47-43.22,18.42,0,29.06,10,35,20.42l-15.28,7.52A22.63,22.63,0,0,0,80.05,150.2c-15.15,0-26.18,11.64-26.18,27.43s11,27.43,26.18,27.43a22.4,22.4,0,0,0,19.67-12.15L115,200.3c-6,10.4-16.53,20.54-34.95,20.54C55,220.84,35.58,203.31,35.58,177.63Z"/><path class="cls-7" d="M250.67,219.34l-32.32-83.55h20.29l23.18,64.26,23.05-64.26h20.29L273,219.34Z"/><path class="cls-7" d="M317.06,219.34V135.79h17.79v83.55Z"/><path class="cls-7" d="M355.52,219.34V135.79h32.94c26.18,0,44.34,16.66,44.34,41.84s-18.16,41.71-44.34,41.71Zm59.12-41.71c0-14.78-9-26.18-26.18-26.18H373.3v52.23h15.16C405,203.68,414.64,191.78,414.64,177.63Z"/><path class="cls-7" d="M481.28,195.79V182.26h30.07v13.53Z"/><path class="cls-7" d="M580.87,219.34V158.71L567,172.87l-10.14-10.65,26.3-26.43h15.53v83.55Z"/><path class="cls-7" d="M619.45,212.08l7.89-13.66c4.51,4.26,9.27,6.52,16.66,6.52,13.78,0,20.92-11.53,20.92-23.55v-1.88c-4,5.63-12.4,10.77-21.55,10.77-15,0-28.55-9.4-28.55-27.18,0-16.29,13-28.69,32.06-28.69,25.31,0,36,19.54,36,43.22,0,25.18-14.15,43.09-38.83,43.09C633.85,220.72,625.34,217.34,619.45,212.08Zm45.35-44.85c-.76-8-5.27-17-17-17-9.52,0-14.78,6.51-14.78,12.27,0,8.77,7.64,12.53,15.41,12.53A21.42,21.42,0,0,0,664.8,167.23Z"/></svg>